<?xml version="1.0" encoding="UTF-8"?>
<svg id="Layer_2" data-name="Layer 2" xmlns="http://www.w3.org/2000/svg" xmlns:xlink="http://www.w3.org/1999/xlink" viewBox="0 0 158 138">
  <defs>
    <style>
      .cls-1 {
        fill: url(#linear-gradient);
        filter: url(#drop-shadow-1);
      }

      .cls-2 {
        fill: url(#linear-gradient-2);
        filter: url(#drop-shadow-2);
      }
    </style>
    <linearGradient id="linear-gradient" x1="21.09" y1="21.24" x2="134.33" y2="105.59" gradientUnits="userSpaceOnUse">
      <stop offset="0" stop-color="#fafefd"/>
      <stop offset="1" stop-color="#e4f7f8"/>
    </linearGradient>
    <filter id="drop-shadow-1" filterUnits="userSpaceOnUse">
      <feOffset dx=".57" dy="2.83"/>
      <feGaussianBlur result="blur" stdDeviation="2.83"/>
      <feFlood flood-color="#000" flood-opacity=".1"/>
      <feComposite in2="blur" operator="in"/>
      <feComposite in="SourceGraphic"/>
    </filter>
    <linearGradient id="linear-gradient-2" x1="115.78" y1="57.03" x2="115.83" y2=".7" gradientUnits="userSpaceOnUse">
      <stop offset=".2" stop-color="#24cbab"/>
      <stop offset=".79" stop-color="#55eba2"/>
    </linearGradient>
    <filter id="drop-shadow-2" filterUnits="userSpaceOnUse">
      <feOffset dx=".57" dy="2.83"/>
      <feGaussianBlur result="blur-2" stdDeviation="2.83"/>
      <feFlood flood-color="#000" flood-opacity=".1"/>
      <feComposite in2="blur-2" operator="in"/>
      <feComposite in="SourceGraphic"/>
    </filter>
  </defs>
  <g id="Layer_1-2" data-name="Layer 1">
    <g>
      <path class="cls-1" d="m142.3,29.67c-.2-.02-.4-.03-.61-.03h-2.54l-20.84,20c-1.49,1.42-3.29,2.47-5.24,3.05-1.49.58-3.05.87-4.66.87-3.67,0-7.17-1.57-9.61-4.29l-14.04-15.7c-1.04-1.16-2.36-2.67-3.4-3.92h-41.57l-1.63-7.2c-1-5.03-5.41-8.65-10.54-8.65h-13.14c-2.8,0-5.31,2.05-5.58,4.84-.31,3.2,2.2,5.89,5.34,5.89h14.96l2.78,12.72h.02l6.41,31.42,5.12,24.93,1.56,7.6c.37,1.83,1.06,3.52,1.99,5.04-2.56,2.18-4.16,5.46-4.07,9.1.16,5.97,5.05,10.94,11.02,11.19,6.58.27,12-4.98,12-11.5,0-.41-.02-.82-.07-1.23h41.47s0,.05,0,.07c-.66,5.81,3.38,11.32,9.13,12.44,7.68,1.5,14.37-4.64,13.81-12.18-.46-6.06-5.75-10.63-11.83-10.63h-53.51c-4.58,0-8.52-3.25-9.4-7.74l-.42-2.17h69.21c6.25,0,11.69-4.28,13.18-10.35l10.97-44.83c1.05-4.27-1.99-8.38-6.27-8.74Zm-84.62,28.07c0-3.05,2.47-5.52,5.51-5.52h21.19c3.05,0,5.52,2.47,5.52,5.52s-2.47,5.51-5.52,5.51h-21.19c-3.04,0-5.51-2.47-5.51-5.51Zm51.04,24.59h-43.53c-3.04,0-5.51-2.47-5.51-5.51s2.47-5.52,5.51-5.52h43.53c3.04,0,5.51,2.47,5.51,5.52s-2.47,5.51-5.51,5.51Z"/>
      <path class="cls-2" d="m108.41,47.6c-1.98,0-3.86-.84-5.17-2.31l-14.04-15.7c-1.14-1.27-1.77-2.91-1.77-4.62,0-1.98.84-3.87,2.31-5.19,1.28-1.14,2.92-1.77,4.63-1.77,1.98,0,3.86.84,5.18,2.32l9.52,10.65,23.35-22.41c1.3-1.25,3.01-1.93,4.82-1.93,1.91,0,3.69.76,5.01,2.14,2.65,2.76,2.56,7.17-.2,9.83l-27.87,26.74c-.85.81-1.89,1.4-3,1.69-.93.39-1.84.57-2.77.57Z"/>
    </g>
  </g>
</svg>